<mxfile host="app.diagrams.net" modified="2023-12-25T07:30:51.998Z" agent="Mozilla/5.0 (Macintosh; Intel Mac OS X 10_15_7) AppleWebKit/537.36 (KHTML, like Gecko) Chrome/120.0.0.0 Safari/537.36" etag="lELaFiKXLvaaBw8aAWfN" version="22.1.11" type="github">
  <diagram id="C5RBs43oDa-KdzZeNtuy" name="Page-1">
    <mxGraphModel dx="1851" dy="605" grid="1" gridSize="10" guides="1" tooltips="1" connect="1" arrows="1" fold="1" page="1" pageScale="1" pageWidth="827" pageHeight="1169" math="0" shadow="0">
      <root>
        <mxCell id="WIyWlLk6GJQsqaUBKTNV-0" />
        <mxCell id="WIyWlLk6GJQsqaUBKTNV-1" parent="WIyWlLk6GJQsqaUBKTNV-0" />
        <mxCell id="02b0DI_633Z7Wo2SVN0X-6" style="edgeStyle=orthogonalEdgeStyle;rounded=0;orthogonalLoop=1;jettySize=auto;html=1;entryX=0;entryY=0.5;entryDx=0;entryDy=0;" edge="1" parent="WIyWlLk6GJQsqaUBKTNV-1" source="WIyWlLk6GJQsqaUBKTNV-3" target="02b0DI_633Z7Wo2SVN0X-5">
          <mxGeometry relative="1" as="geometry">
            <Array as="points">
              <mxPoint x="50" y="440" />
            </Array>
          </mxGeometry>
        </mxCell>
        <mxCell id="WIyWlLk6GJQsqaUBKTNV-3" value="aischduler任务1" style="rounded=1;whiteSpace=wrap;html=1;fontSize=12;glass=0;strokeWidth=1;shadow=0;" parent="WIyWlLk6GJQsqaUBKTNV-1" vertex="1">
          <mxGeometry x="-10" y="240" width="120" height="40" as="geometry" />
        </mxCell>
        <mxCell id="j8d3ncgpAfrZO2e88Lk0-1" value="线程2" style="rounded=1;whiteSpace=wrap;html=1;fontSize=12;glass=0;strokeWidth=1;shadow=0;" parent="WIyWlLk6GJQsqaUBKTNV-1" vertex="1">
          <mxGeometry x="294" y="100" width="120" height="40" as="geometry" />
        </mxCell>
        <mxCell id="j8d3ncgpAfrZO2e88Lk0-2" value="线程3" style="rounded=1;whiteSpace=wrap;html=1;fontSize=12;glass=0;strokeWidth=1;shadow=0;" parent="WIyWlLk6GJQsqaUBKTNV-1" vertex="1">
          <mxGeometry x="520" y="100" width="120" height="40" as="geometry" />
        </mxCell>
        <mxCell id="02b0DI_633Z7Wo2SVN0X-7" style="edgeStyle=orthogonalEdgeStyle;rounded=0;orthogonalLoop=1;jettySize=auto;html=1;" edge="1" parent="WIyWlLk6GJQsqaUBKTNV-1" source="02b0DI_633Z7Wo2SVN0X-0" target="02b0DI_633Z7Wo2SVN0X-5">
          <mxGeometry relative="1" as="geometry" />
        </mxCell>
        <mxCell id="02b0DI_633Z7Wo2SVN0X-0" value="aischduler任务2" style="rounded=1;whiteSpace=wrap;html=1;fontSize=12;glass=0;strokeWidth=1;shadow=0;" vertex="1" parent="WIyWlLk6GJQsqaUBKTNV-1">
          <mxGeometry x="160" y="240" width="120" height="40" as="geometry" />
        </mxCell>
        <mxCell id="02b0DI_633Z7Wo2SVN0X-8" style="edgeStyle=orthogonalEdgeStyle;rounded=0;orthogonalLoop=1;jettySize=auto;html=1;entryX=1;entryY=0.5;entryDx=0;entryDy=0;" edge="1" parent="WIyWlLk6GJQsqaUBKTNV-1" source="02b0DI_633Z7Wo2SVN0X-1" target="02b0DI_633Z7Wo2SVN0X-5">
          <mxGeometry relative="1" as="geometry">
            <Array as="points">
              <mxPoint x="380" y="440" />
            </Array>
          </mxGeometry>
        </mxCell>
        <mxCell id="02b0DI_633Z7Wo2SVN0X-1" value="aischduler任务3" style="rounded=1;whiteSpace=wrap;html=1;fontSize=12;glass=0;strokeWidth=1;shadow=0;" vertex="1" parent="WIyWlLk6GJQsqaUBKTNV-1">
          <mxGeometry x="320" y="240" width="120" height="40" as="geometry" />
        </mxCell>
        <mxCell id="02b0DI_633Z7Wo2SVN0X-5" value="java应用进程" style="rounded=0;whiteSpace=wrap;html=1;fillColor=#ffe6cc;strokeColor=#d79b00;" vertex="1" parent="WIyWlLk6GJQsqaUBKTNV-1">
          <mxGeometry x="160" y="410" width="120" height="60" as="geometry" />
        </mxCell>
        <mxCell id="02b0DI_633Z7Wo2SVN0X-12" value="" style="edgeStyle=orthogonalEdgeStyle;rounded=0;orthogonalLoop=1;jettySize=auto;html=1;" edge="1" parent="WIyWlLk6GJQsqaUBKTNV-1" source="02b0DI_633Z7Wo2SVN0X-9" target="02b0DI_633Z7Wo2SVN0X-5">
          <mxGeometry relative="1" as="geometry" />
        </mxCell>
        <mxCell id="02b0DI_633Z7Wo2SVN0X-9" value="静态代码&lt;br&gt;当前应用里面只会有一份，只要任意一个任务关闭缓存刷新线程，那么久不会在刷新缓存了" style="rounded=1;whiteSpace=wrap;html=1;fillColor=#ffe6cc;strokeColor=#d79b00;" vertex="1" parent="WIyWlLk6GJQsqaUBKTNV-1">
          <mxGeometry x="160" y="500" width="120" height="60" as="geometry" />
        </mxCell>
        <mxCell id="02b0DI_633Z7Wo2SVN0X-11" value="" style="edgeStyle=orthogonalEdgeStyle;rounded=0;orthogonalLoop=1;jettySize=auto;html=1;" edge="1" parent="WIyWlLk6GJQsqaUBKTNV-1" source="02b0DI_633Z7Wo2SVN0X-10" target="02b0DI_633Z7Wo2SVN0X-9">
          <mxGeometry relative="1" as="geometry" />
        </mxCell>
        <mxCell id="02b0DI_633Z7Wo2SVN0X-10" value="缓存刷新线程" style="rounded=0;whiteSpace=wrap;html=1;fillColor=#ffe6cc;strokeColor=#d79b00;" vertex="1" parent="WIyWlLk6GJQsqaUBKTNV-1">
          <mxGeometry x="160" y="600" width="120" height="60" as="geometry" />
        </mxCell>
        <mxCell id="02b0DI_633Z7Wo2SVN0X-20" style="edgeStyle=orthogonalEdgeStyle;rounded=0;orthogonalLoop=1;jettySize=auto;html=1;entryX=0.5;entryY=0;entryDx=0;entryDy=0;" edge="1" parent="WIyWlLk6GJQsqaUBKTNV-1" source="02b0DI_633Z7Wo2SVN0X-13" target="02b0DI_633Z7Wo2SVN0X-16">
          <mxGeometry relative="1" as="geometry" />
        </mxCell>
        <mxCell id="02b0DI_633Z7Wo2SVN0X-13" value="et任务1" style="rounded=1;whiteSpace=wrap;html=1;fontSize=12;glass=0;strokeWidth=1;shadow=0;" vertex="1" parent="WIyWlLk6GJQsqaUBKTNV-1">
          <mxGeometry x="570" y="240" width="120" height="40" as="geometry" />
        </mxCell>
        <mxCell id="02b0DI_633Z7Wo2SVN0X-16" value="java应用进程" style="rounded=0;whiteSpace=wrap;html=1;fillColor=#ffe6cc;strokeColor=#d79b00;" vertex="1" parent="WIyWlLk6GJQsqaUBKTNV-1">
          <mxGeometry x="570" y="380" width="120" height="60" as="geometry" />
        </mxCell>
        <mxCell id="02b0DI_633Z7Wo2SVN0X-22" value="" style="edgeStyle=orthogonalEdgeStyle;rounded=0;orthogonalLoop=1;jettySize=auto;html=1;" edge="1" parent="WIyWlLk6GJQsqaUBKTNV-1" source="02b0DI_633Z7Wo2SVN0X-18" target="02b0DI_633Z7Wo2SVN0X-19">
          <mxGeometry relative="1" as="geometry" />
        </mxCell>
        <mxCell id="02b0DI_633Z7Wo2SVN0X-18" value="缓存刷新线程" style="rounded=0;whiteSpace=wrap;html=1;fillColor=#ffe6cc;strokeColor=#d79b00;" vertex="1" parent="WIyWlLk6GJQsqaUBKTNV-1">
          <mxGeometry x="570" y="585" width="120" height="60" as="geometry" />
        </mxCell>
        <mxCell id="02b0DI_633Z7Wo2SVN0X-21" value="" style="edgeStyle=orthogonalEdgeStyle;rounded=0;orthogonalLoop=1;jettySize=auto;html=1;" edge="1" parent="WIyWlLk6GJQsqaUBKTNV-1" source="02b0DI_633Z7Wo2SVN0X-19" target="02b0DI_633Z7Wo2SVN0X-16">
          <mxGeometry relative="1" as="geometry" />
        </mxCell>
        <mxCell id="02b0DI_633Z7Wo2SVN0X-19" value="静态代码块" style="rounded=1;whiteSpace=wrap;html=1;fillColor=#ffe6cc;strokeColor=#d79b00;" vertex="1" parent="WIyWlLk6GJQsqaUBKTNV-1">
          <mxGeometry x="570" y="490" width="120" height="60" as="geometry" />
        </mxCell>
        <mxCell id="02b0DI_633Z7Wo2SVN0X-23" style="edgeStyle=orthogonalEdgeStyle;rounded=0;orthogonalLoop=1;jettySize=auto;html=1;entryX=0.5;entryY=0;entryDx=0;entryDy=0;" edge="1" parent="WIyWlLk6GJQsqaUBKTNV-1" source="02b0DI_633Z7Wo2SVN0X-24" target="02b0DI_633Z7Wo2SVN0X-25">
          <mxGeometry relative="1" as="geometry" />
        </mxCell>
        <mxCell id="02b0DI_633Z7Wo2SVN0X-24" value="et任务1" style="rounded=1;whiteSpace=wrap;html=1;fontSize=12;glass=0;strokeWidth=1;shadow=0;" vertex="1" parent="WIyWlLk6GJQsqaUBKTNV-1">
          <mxGeometry x="730" y="240" width="120" height="40" as="geometry" />
        </mxCell>
        <mxCell id="02b0DI_633Z7Wo2SVN0X-25" value="java应用进程" style="rounded=0;whiteSpace=wrap;html=1;fillColor=#ffe6cc;strokeColor=#d79b00;" vertex="1" parent="WIyWlLk6GJQsqaUBKTNV-1">
          <mxGeometry x="730" y="380" width="120" height="60" as="geometry" />
        </mxCell>
        <mxCell id="02b0DI_633Z7Wo2SVN0X-26" value="" style="edgeStyle=orthogonalEdgeStyle;rounded=0;orthogonalLoop=1;jettySize=auto;html=1;" edge="1" parent="WIyWlLk6GJQsqaUBKTNV-1" source="02b0DI_633Z7Wo2SVN0X-27" target="02b0DI_633Z7Wo2SVN0X-29">
          <mxGeometry relative="1" as="geometry" />
        </mxCell>
        <mxCell id="02b0DI_633Z7Wo2SVN0X-27" value="缓存刷新线程" style="rounded=0;whiteSpace=wrap;html=1;fillColor=#ffe6cc;strokeColor=#d79b00;" vertex="1" parent="WIyWlLk6GJQsqaUBKTNV-1">
          <mxGeometry x="730" y="585" width="120" height="60" as="geometry" />
        </mxCell>
        <mxCell id="02b0DI_633Z7Wo2SVN0X-28" value="" style="edgeStyle=orthogonalEdgeStyle;rounded=0;orthogonalLoop=1;jettySize=auto;html=1;" edge="1" parent="WIyWlLk6GJQsqaUBKTNV-1" source="02b0DI_633Z7Wo2SVN0X-29" target="02b0DI_633Z7Wo2SVN0X-25">
          <mxGeometry relative="1" as="geometry" />
        </mxCell>
        <mxCell id="02b0DI_633Z7Wo2SVN0X-29" value="静态代码块" style="rounded=1;whiteSpace=wrap;html=1;fillColor=#ffe6cc;strokeColor=#d79b00;" vertex="1" parent="WIyWlLk6GJQsqaUBKTNV-1">
          <mxGeometry x="730" y="490" width="120" height="60" as="geometry" />
        </mxCell>
      </root>
    </mxGraphModel>
  </diagram>
</mxfile>
